<mxfile host="app.diagrams.net" modified="2022-11-29T09:14:32.690Z" agent="5.0 (Macintosh)" etag="uMOXqxpluW4f3adRzlhb" version="20.5.3" type="github">
  <diagram id="sirWhhB7pOe3GyJsnbqC" name="Page-1">
    <mxGraphModel dx="1720" dy="1044" grid="1" gridSize="10" guides="1" tooltips="1" connect="1" arrows="1" fold="1" page="1" pageScale="1" pageWidth="850" pageHeight="1100" math="0" shadow="0">
      <root>
        <mxCell id="0" />
        <mxCell id="1" parent="0" />
        <mxCell id="KDtAswgpiZjDjle5bZfT-6" style="edgeStyle=orthogonalEdgeStyle;rounded=0;orthogonalLoop=1;jettySize=auto;html=1;fontSize=14;verticalAlign=middle;endArrow=none;endFill=0;" edge="1" parent="1" source="KDtAswgpiZjDjle5bZfT-5">
          <mxGeometry relative="1" as="geometry">
            <mxPoint x="160" y="590" as="targetPoint" />
          </mxGeometry>
        </mxCell>
        <mxCell id="KDtAswgpiZjDjle5bZfT-63" style="edgeStyle=orthogonalEdgeStyle;rounded=0;orthogonalLoop=1;jettySize=auto;html=1;strokeColor=#009900;strokeWidth=5;fontSize=20;fontColor=#009900;endArrow=none;endFill=0;" edge="1" parent="1" source="KDtAswgpiZjDjle5bZfT-35">
          <mxGeometry relative="1" as="geometry">
            <mxPoint x="1880" y="450" as="targetPoint" />
            <Array as="points">
              <mxPoint x="2095" y="540" />
              <mxPoint x="1880" y="540" />
            </Array>
          </mxGeometry>
        </mxCell>
        <mxCell id="KDtAswgpiZjDjle5bZfT-64" value="&lt;b&gt;.91&lt;/b&gt;" style="edgeLabel;html=1;align=center;verticalAlign=middle;resizable=0;points=[];fontSize=20;fontColor=#009900;" vertex="1" connectable="0" parent="KDtAswgpiZjDjle5bZfT-63">
          <mxGeometry x="-0.2229" y="6" relative="1" as="geometry">
            <mxPoint y="-6" as="offset" />
          </mxGeometry>
        </mxCell>
        <mxCell id="KDtAswgpiZjDjle5bZfT-74" style="edgeStyle=orthogonalEdgeStyle;rounded=0;orthogonalLoop=1;jettySize=auto;html=1;strokeColor=#FF0080;strokeWidth=5;fontSize=20;fontColor=#FF0080;endArrow=none;endFill=0;" edge="1" parent="1" source="KDtAswgpiZjDjle5bZfT-35">
          <mxGeometry relative="1" as="geometry">
            <mxPoint x="1850" y="360" as="targetPoint" />
            <Array as="points">
              <mxPoint x="2150" y="390" />
              <mxPoint x="1850" y="390" />
            </Array>
          </mxGeometry>
        </mxCell>
        <mxCell id="KDtAswgpiZjDjle5bZfT-75" value="&lt;b&gt;.91&lt;/b&gt;" style="edgeLabel;html=1;align=center;verticalAlign=middle;resizable=0;points=[];fontSize=20;fontColor=#FF0080;" vertex="1" connectable="0" parent="KDtAswgpiZjDjle5bZfT-74">
          <mxGeometry x="-0.5417" y="-4" relative="1" as="geometry">
            <mxPoint as="offset" />
          </mxGeometry>
        </mxCell>
        <mxCell id="KDtAswgpiZjDjle5bZfT-35" value="" style="rounded=1;whiteSpace=wrap;html=1;fontSize=14;" vertex="1" parent="1">
          <mxGeometry x="1970" y="585" width="250" height="135" as="geometry" />
        </mxCell>
        <mxCell id="KDtAswgpiZjDjle5bZfT-37" value="vCenter" style="text;html=1;strokeColor=none;fillColor=none;align=center;verticalAlign=middle;whiteSpace=wrap;rounded=0;fontSize=14;" vertex="1" parent="KDtAswgpiZjDjle5bZfT-35">
          <mxGeometry x="20" y="100" width="210" height="30" as="geometry" />
        </mxCell>
        <mxCell id="KDtAswgpiZjDjle5bZfT-62" value="&lt;b&gt;.52&lt;/b&gt;" style="edgeStyle=orthogonalEdgeStyle;rounded=0;orthogonalLoop=1;jettySize=auto;html=1;strokeColor=#009900;strokeWidth=5;fontSize=20;fontColor=#009900;endArrow=none;endFill=0;" edge="1" parent="1" source="KDtAswgpiZjDjle5bZfT-32">
          <mxGeometry relative="1" as="geometry">
            <mxPoint x="1775" y="450" as="targetPoint" />
          </mxGeometry>
        </mxCell>
        <mxCell id="KDtAswgpiZjDjle5bZfT-32" value="" style="rounded=1;whiteSpace=wrap;html=1;fontSize=14;" vertex="1" parent="1">
          <mxGeometry x="1650" y="585" width="250" height="135" as="geometry" />
        </mxCell>
        <mxCell id="KDtAswgpiZjDjle5bZfT-33" value="&lt;div&gt;2&lt;/div&gt;" style="text;html=1;strokeColor=none;fillColor=none;align=center;verticalAlign=middle;whiteSpace=wrap;rounded=0;fontSize=11;" vertex="1" parent="KDtAswgpiZjDjle5bZfT-32">
          <mxGeometry x="134" y="3" width="60" height="30" as="geometry" />
        </mxCell>
        <mxCell id="KDtAswgpiZjDjle5bZfT-48" style="edgeStyle=orthogonalEdgeStyle;rounded=0;orthogonalLoop=1;jettySize=auto;html=1;strokeColor=#7F00FF;strokeWidth=5;fontSize=20;fontColor=#7F00FF;endArrow=none;endFill=0;" edge="1" parent="1" source="KDtAswgpiZjDjle5bZfT-29">
          <mxGeometry relative="1" as="geometry">
            <mxPoint x="1445" y="830" as="targetPoint" />
          </mxGeometry>
        </mxCell>
        <mxCell id="KDtAswgpiZjDjle5bZfT-49" value="&lt;b&gt;.51&lt;/b&gt;" style="edgeLabel;html=1;align=center;verticalAlign=middle;resizable=0;points=[];fontSize=20;fontColor=#7F00FF;" vertex="1" connectable="0" parent="KDtAswgpiZjDjle5bZfT-48">
          <mxGeometry x="0.1037" relative="1" as="geometry">
            <mxPoint as="offset" />
          </mxGeometry>
        </mxCell>
        <mxCell id="KDtAswgpiZjDjle5bZfT-61" value="&lt;b&gt;.51&lt;/b&gt;" style="edgeStyle=orthogonalEdgeStyle;rounded=0;orthogonalLoop=1;jettySize=auto;html=1;strokeColor=#009900;strokeWidth=5;fontSize=20;fontColor=#009900;endArrow=none;endFill=0;" edge="1" parent="1" source="KDtAswgpiZjDjle5bZfT-29">
          <mxGeometry relative="1" as="geometry">
            <mxPoint x="1445" y="450" as="targetPoint" />
          </mxGeometry>
        </mxCell>
        <mxCell id="KDtAswgpiZjDjle5bZfT-68" style="edgeStyle=orthogonalEdgeStyle;rounded=0;orthogonalLoop=1;jettySize=auto;html=1;strokeColor=#FF0080;strokeWidth=5;fontSize=20;fontColor=#FF0080;endArrow=none;endFill=0;" edge="1" parent="1" source="KDtAswgpiZjDjle5bZfT-29">
          <mxGeometry relative="1" as="geometry">
            <mxPoint x="1530" y="360" as="targetPoint" />
            <Array as="points">
              <mxPoint x="1530" y="360" />
            </Array>
          </mxGeometry>
        </mxCell>
        <mxCell id="KDtAswgpiZjDjle5bZfT-69" value="&lt;b&gt;.51&lt;/b&gt;" style="edgeLabel;html=1;align=center;verticalAlign=middle;resizable=0;points=[];fontSize=20;fontColor=#FF0080;" vertex="1" connectable="0" parent="KDtAswgpiZjDjle5bZfT-68">
          <mxGeometry x="-0.5811" y="-1" relative="1" as="geometry">
            <mxPoint as="offset" />
          </mxGeometry>
        </mxCell>
        <mxCell id="KDtAswgpiZjDjle5bZfT-29" value="" style="rounded=1;whiteSpace=wrap;html=1;fontSize=14;" vertex="1" parent="1">
          <mxGeometry x="1320" y="585" width="250" height="135" as="geometry" />
        </mxCell>
        <mxCell id="KDtAswgpiZjDjle5bZfT-59" style="edgeStyle=orthogonalEdgeStyle;rounded=0;orthogonalLoop=1;jettySize=auto;html=1;strokeColor=#009900;strokeWidth=5;fontSize=20;fontColor=#009900;endArrow=none;endFill=0;" edge="1" parent="1" source="KDtAswgpiZjDjle5bZfT-24">
          <mxGeometry relative="1" as="geometry">
            <mxPoint x="1115" y="450" as="targetPoint" />
            <Array as="points">
              <mxPoint x="1115" y="480" />
              <mxPoint x="1115" y="480" />
            </Array>
          </mxGeometry>
        </mxCell>
        <mxCell id="KDtAswgpiZjDjle5bZfT-60" value="&lt;b&gt;.231&lt;/b&gt;" style="edgeLabel;html=1;align=center;verticalAlign=middle;resizable=0;points=[];fontSize=20;fontColor=#009900;" vertex="1" connectable="0" parent="KDtAswgpiZjDjle5bZfT-59">
          <mxGeometry x="0.5344" y="-3" relative="1" as="geometry">
            <mxPoint x="-3" y="69" as="offset" />
          </mxGeometry>
        </mxCell>
        <mxCell id="KDtAswgpiZjDjle5bZfT-66" style="edgeStyle=orthogonalEdgeStyle;rounded=0;orthogonalLoop=1;jettySize=auto;html=1;strokeColor=#FF0080;strokeWidth=5;fontSize=20;fontColor=#FF0080;endArrow=none;endFill=0;" edge="1" parent="1" source="KDtAswgpiZjDjle5bZfT-24">
          <mxGeometry relative="1" as="geometry">
            <mxPoint x="1190" y="360" as="targetPoint" />
            <Array as="points">
              <mxPoint x="1190" y="370" />
            </Array>
          </mxGeometry>
        </mxCell>
        <mxCell id="KDtAswgpiZjDjle5bZfT-67" value="&lt;b&gt;.100&lt;/b&gt;" style="edgeLabel;html=1;align=center;verticalAlign=middle;resizable=0;points=[];fontSize=20;fontColor=#FF0080;" vertex="1" connectable="0" parent="KDtAswgpiZjDjle5bZfT-66">
          <mxGeometry x="-0.6027" y="-3" relative="1" as="geometry">
            <mxPoint as="offset" />
          </mxGeometry>
        </mxCell>
        <mxCell id="KDtAswgpiZjDjle5bZfT-24" value="" style="rounded=1;whiteSpace=wrap;html=1;fontSize=14;" vertex="1" parent="1">
          <mxGeometry x="990" y="585" width="250" height="135" as="geometry" />
        </mxCell>
        <mxCell id="KDtAswgpiZjDjle5bZfT-58" value="&lt;b&gt;.20&lt;/b&gt;" style="edgeStyle=orthogonalEdgeStyle;rounded=0;orthogonalLoop=1;jettySize=auto;html=1;strokeColor=#009900;strokeWidth=5;fontSize=20;fontColor=#009900;endArrow=none;endFill=0;" edge="1" parent="1">
          <mxGeometry x="-0.6296" relative="1" as="geometry">
            <mxPoint x="785" y="450" as="targetPoint" />
            <mxPoint x="785" y="585" as="sourcePoint" />
            <mxPoint y="1" as="offset" />
          </mxGeometry>
        </mxCell>
        <mxCell id="KDtAswgpiZjDjle5bZfT-20" value="" style="rounded=1;whiteSpace=wrap;html=1;fontSize=14;" vertex="1" parent="1">
          <mxGeometry x="660" y="585" width="250" height="135" as="geometry" />
        </mxCell>
        <mxCell id="KDtAswgpiZjDjle5bZfT-56" style="edgeStyle=orthogonalEdgeStyle;rounded=0;orthogonalLoop=1;jettySize=auto;html=1;strokeColor=#009900;strokeWidth=5;fontSize=20;fontColor=#009900;endArrow=none;endFill=0;" edge="1" parent="1" source="KDtAswgpiZjDjle5bZfT-15">
          <mxGeometry relative="1" as="geometry">
            <mxPoint x="465" y="450" as="targetPoint" />
            <Array as="points">
              <mxPoint x="465" y="450" />
            </Array>
          </mxGeometry>
        </mxCell>
        <mxCell id="KDtAswgpiZjDjle5bZfT-57" value="&lt;b&gt;.10&lt;/b&gt;" style="edgeLabel;html=1;align=center;verticalAlign=middle;resizable=0;points=[];fontSize=20;fontColor=#009900;" vertex="1" connectable="0" parent="KDtAswgpiZjDjle5bZfT-56">
          <mxGeometry x="-0.0996" y="-6" relative="1" as="geometry">
            <mxPoint x="-6" y="31" as="offset" />
          </mxGeometry>
        </mxCell>
        <mxCell id="KDtAswgpiZjDjle5bZfT-15" value="" style="rounded=1;whiteSpace=wrap;html=1;fontSize=14;" vertex="1" parent="1">
          <mxGeometry x="340" y="585" width="250" height="135" as="geometry" />
        </mxCell>
        <mxCell id="KDtAswgpiZjDjle5bZfT-8" value="" style="rounded=1;whiteSpace=wrap;html=1;fontSize=14;" vertex="1" parent="1">
          <mxGeometry x="40" y="585" width="250" height="135" as="geometry" />
        </mxCell>
        <mxCell id="KDtAswgpiZjDjle5bZfT-4" value="" style="sketch=0;points=[[0.5,0,0],[1,0.5,0],[0.5,1,0],[0,0.5,0],[0.145,0.145,0],[0.8555,0.145,0],[0.855,0.8555,0],[0.145,0.855,0]];verticalLabelPosition=bottom;html=1;verticalAlign=top;aspect=fixed;align=center;pointerEvents=1;shape=mxgraph.cisco19.rect;prIcon=router_with_firewall;fillColor=#FAFAFA;strokeColor=#005073;" vertex="1" parent="1">
          <mxGeometry x="135" y="600" width="50" height="50" as="geometry" />
        </mxCell>
        <mxCell id="KDtAswgpiZjDjle5bZfT-5" value="&lt;font style=&quot;font-size: 14px;&quot;&gt;Internet&lt;/font&gt;" style="ellipse;shape=cloud;whiteSpace=wrap;html=1;labelPosition=center;verticalLabelPosition=top;align=center;verticalAlign=bottom;" vertex="1" parent="1">
          <mxGeometry x="100" y="120" width="120" height="80" as="geometry" />
        </mxCell>
        <mxCell id="KDtAswgpiZjDjle5bZfT-9" value="PFSense Firewall &amp;amp; Router" style="text;html=1;strokeColor=none;fillColor=none;align=center;verticalAlign=middle;whiteSpace=wrap;rounded=0;fontSize=14;" vertex="1" parent="1">
          <mxGeometry x="60" y="670" width="210" height="30" as="geometry" />
        </mxCell>
        <mxCell id="KDtAswgpiZjDjle5bZfT-14" value="Primary AD DC" style="text;html=1;strokeColor=none;fillColor=none;align=center;verticalAlign=middle;whiteSpace=wrap;rounded=0;fontSize=14;" vertex="1" parent="1">
          <mxGeometry x="360" y="670" width="210" height="30" as="geometry" />
        </mxCell>
        <mxCell id="KDtAswgpiZjDjle5bZfT-16" value="" style="sketch=0;aspect=fixed;pointerEvents=1;shadow=0;dashed=0;html=1;strokeColor=none;labelPosition=center;verticalLabelPosition=bottom;verticalAlign=top;align=center;fillColor=#00188D;shape=mxgraph.mscae.enterprise.ad_fs;fontSize=14;" vertex="1" parent="1">
          <mxGeometry x="445" y="610" width="40" height="50" as="geometry" />
        </mxCell>
        <mxCell id="KDtAswgpiZjDjle5bZfT-18" value="" style="sketch=0;aspect=fixed;pointerEvents=1;shadow=0;dashed=0;html=1;strokeColor=none;labelPosition=right;verticalLabelPosition=top;verticalAlign=bottom;align=left;fillColor=#00188D;shape=mxgraph.mscae.enterprise.ad_fs;fontSize=11;" vertex="1" parent="1">
          <mxGeometry x="765" y="610" width="40" height="50" as="geometry" />
        </mxCell>
        <mxCell id="KDtAswgpiZjDjle5bZfT-19" value="Backup AD DC" style="text;html=1;strokeColor=none;fillColor=none;align=center;verticalAlign=middle;whiteSpace=wrap;rounded=0;fontSize=14;" vertex="1" parent="1">
          <mxGeometry x="680" y="670" width="210" height="30" as="geometry" />
        </mxCell>
        <mxCell id="KDtAswgpiZjDjle5bZfT-21" value="&lt;div&gt;2&lt;/div&gt;" style="text;html=1;strokeColor=none;fillColor=none;align=center;verticalAlign=middle;whiteSpace=wrap;rounded=0;fontSize=11;" vertex="1" parent="1">
          <mxGeometry x="772" y="593" width="60" height="30" as="geometry" />
        </mxCell>
        <mxCell id="KDtAswgpiZjDjle5bZfT-22" value="" style="sketch=0;pointerEvents=1;shadow=0;dashed=0;html=1;strokeColor=none;fillColor=#005F4B;labelPosition=center;verticalLabelPosition=bottom;verticalAlign=top;align=center;outlineConnect=0;shape=mxgraph.veeam2.nas;fontSize=11;" vertex="1" parent="1">
          <mxGeometry x="1089" y="610" width="52" height="52" as="geometry" />
        </mxCell>
        <mxCell id="KDtAswgpiZjDjle5bZfT-25" value="TrueNAS Storage" style="text;html=1;strokeColor=none;fillColor=none;align=center;verticalAlign=middle;whiteSpace=wrap;rounded=0;fontSize=14;" vertex="1" parent="1">
          <mxGeometry x="1010" y="670" width="210" height="30" as="geometry" />
        </mxCell>
        <mxCell id="KDtAswgpiZjDjle5bZfT-26" value="" style="pointerEvents=1;shadow=0;dashed=0;html=1;strokeColor=none;fillColor=#4495D1;labelPosition=center;verticalLabelPosition=bottom;verticalAlign=top;align=center;outlineConnect=0;shape=mxgraph.veeam.2d.esx_esxi;fontSize=11;" vertex="1" parent="1">
          <mxGeometry x="1422.39" y="600" width="45.23" height="69.2" as="geometry" />
        </mxCell>
        <mxCell id="KDtAswgpiZjDjle5bZfT-28" value="ESXi 1" style="text;html=1;strokeColor=none;fillColor=none;align=center;verticalAlign=middle;whiteSpace=wrap;rounded=0;fontSize=14;" vertex="1" parent="1">
          <mxGeometry x="1340" y="676" width="210" height="30" as="geometry" />
        </mxCell>
        <mxCell id="KDtAswgpiZjDjle5bZfT-30" value="" style="pointerEvents=1;shadow=0;dashed=0;html=1;strokeColor=none;fillColor=#4495D1;labelPosition=center;verticalLabelPosition=bottom;verticalAlign=top;align=center;outlineConnect=0;shape=mxgraph.veeam.2d.esx_esxi;fontSize=11;" vertex="1" parent="1">
          <mxGeometry x="1752.39" y="600" width="45.23" height="69.2" as="geometry" />
        </mxCell>
        <mxCell id="KDtAswgpiZjDjle5bZfT-31" value="ESXi 2" style="text;html=1;strokeColor=none;fillColor=none;align=center;verticalAlign=middle;whiteSpace=wrap;rounded=0;fontSize=14;" vertex="1" parent="1">
          <mxGeometry x="1670" y="676" width="210" height="30" as="geometry" />
        </mxCell>
        <mxCell id="KDtAswgpiZjDjle5bZfT-36" value="" style="sketch=0;pointerEvents=1;shadow=0;dashed=0;html=1;strokeColor=none;fillColor=#005F4B;labelPosition=center;verticalLabelPosition=bottom;verticalAlign=top;align=center;outlineConnect=0;shape=mxgraph.veeam2.vcenter_server;fontSize=11;" vertex="1" parent="1">
          <mxGeometry x="2059.77" y="594" width="66.46" height="86.4" as="geometry" />
        </mxCell>
        <mxCell id="KDtAswgpiZjDjle5bZfT-38" value="Production Network 172.20.&lt;b&gt;11&lt;/b&gt;.0/24" style="endArrow=none;html=1;rounded=0;fontSize=20;fontColor=#7F00FF;strokeColor=#7F00FF;strokeWidth=5;labelPosition=left;verticalLabelPosition=bottom;align=right;verticalAlign=top;" edge="1" parent="1">
          <mxGeometry x="-0.6559" y="-10" width="50" height="50" relative="1" as="geometry">
            <mxPoint x="40" y="831" as="sourcePoint" />
            <mxPoint x="1900" y="831" as="targetPoint" />
            <mxPoint as="offset" />
          </mxGeometry>
        </mxCell>
        <mxCell id="KDtAswgpiZjDjle5bZfT-39" value="" style="endArrow=none;html=1;rounded=0;strokeColor=#7F00FF;strokeWidth=5;fontSize=20;fontColor=#7F00FF;entryX=0.44;entryY=1;entryDx=0;entryDy=0;entryPerimeter=0;" edge="1" parent="1">
          <mxGeometry width="50" height="50" relative="1" as="geometry">
            <mxPoint x="150" y="830" as="sourcePoint" />
            <mxPoint x="149.99999999999977" y="720" as="targetPoint" />
          </mxGeometry>
        </mxCell>
        <mxCell id="KDtAswgpiZjDjle5bZfT-40" value="&lt;b&gt;.250&lt;/b&gt;" style="edgeLabel;html=1;align=center;verticalAlign=middle;resizable=0;points=[];fontSize=20;fontColor=#7F00FF;" vertex="1" connectable="0" parent="KDtAswgpiZjDjle5bZfT-39">
          <mxGeometry x="0.4446" y="-3" relative="1" as="geometry">
            <mxPoint y="1" as="offset" />
          </mxGeometry>
        </mxCell>
        <mxCell id="KDtAswgpiZjDjle5bZfT-50" style="edgeStyle=orthogonalEdgeStyle;rounded=0;orthogonalLoop=1;jettySize=auto;html=1;strokeColor=#7F00FF;strokeWidth=5;fontSize=20;fontColor=#7F00FF;endArrow=none;endFill=0;" edge="1" parent="1">
          <mxGeometry relative="1" as="geometry">
            <mxPoint x="1695" y="830" as="targetPoint" />
            <mxPoint x="1695" y="720" as="sourcePoint" />
          </mxGeometry>
        </mxCell>
        <mxCell id="KDtAswgpiZjDjle5bZfT-51" value="&lt;b&gt;.52&lt;/b&gt;" style="edgeLabel;html=1;align=center;verticalAlign=middle;resizable=0;points=[];fontSize=20;fontColor=#7F00FF;" vertex="1" connectable="0" parent="KDtAswgpiZjDjle5bZfT-50">
          <mxGeometry x="0.1037" relative="1" as="geometry">
            <mxPoint as="offset" />
          </mxGeometry>
        </mxCell>
        <mxCell id="KDtAswgpiZjDjle5bZfT-52" value="Management Network 172.20.&lt;b&gt;12&lt;/b&gt;.0/24" style="endArrow=none;html=1;rounded=0;fontSize=20;fontColor=#009900;strokeColor=#009900;strokeWidth=5;labelPosition=left;verticalLabelPosition=top;align=right;verticalAlign=bottom;" edge="1" parent="1">
          <mxGeometry x="-0.4946" y="8" width="50" height="50" relative="1" as="geometry">
            <mxPoint x="40" y="448" as="sourcePoint" />
            <mxPoint x="1900" y="448" as="targetPoint" />
            <mxPoint as="offset" />
          </mxGeometry>
        </mxCell>
        <mxCell id="KDtAswgpiZjDjle5bZfT-53" style="edgeStyle=orthogonalEdgeStyle;rounded=0;orthogonalLoop=1;jettySize=auto;html=1;strokeColor=#009900;strokeWidth=5;fontSize=20;fontColor=#009900;endArrow=none;endFill=0;" edge="1" parent="1" source="KDtAswgpiZjDjle5bZfT-8">
          <mxGeometry relative="1" as="geometry">
            <mxPoint x="220" y="450" as="targetPoint" />
            <Array as="points">
              <mxPoint x="220" y="450" />
            </Array>
          </mxGeometry>
        </mxCell>
        <mxCell id="KDtAswgpiZjDjle5bZfT-54" value="&lt;b&gt;.250&lt;/b&gt;" style="edgeLabel;html=1;align=center;verticalAlign=middle;resizable=0;points=[];fontSize=20;fontColor=#009900;" vertex="1" connectable="0" parent="KDtAswgpiZjDjle5bZfT-53">
          <mxGeometry x="-0.5392" y="-2" relative="1" as="geometry">
            <mxPoint as="offset" />
          </mxGeometry>
        </mxCell>
        <mxCell id="KDtAswgpiZjDjle5bZfT-65" value="Storage Network 172.20.&lt;b&gt;12&lt;/b&gt;.0/24" style="endArrow=none;html=1;rounded=0;fontSize=20;fontColor=#FF0080;strokeColor=#FF0080;strokeWidth=5;labelPosition=left;verticalLabelPosition=top;align=right;verticalAlign=bottom;" edge="1" parent="1">
          <mxGeometry x="-0.4946" y="8" width="50" height="50" relative="1" as="geometry">
            <mxPoint x="40" y="362" as="sourcePoint" />
            <mxPoint x="1900" y="362" as="targetPoint" />
            <mxPoint as="offset" />
          </mxGeometry>
        </mxCell>
        <mxCell id="KDtAswgpiZjDjle5bZfT-72" style="edgeStyle=orthogonalEdgeStyle;rounded=0;orthogonalLoop=1;jettySize=auto;html=1;strokeColor=#FF0080;strokeWidth=5;fontSize=20;fontColor=#FF0080;endArrow=none;endFill=0;" edge="1" parent="1">
          <mxGeometry relative="1" as="geometry">
            <mxPoint x="1700" y="360" as="targetPoint" />
            <mxPoint x="1700.0285714285715" y="585" as="sourcePoint" />
            <Array as="points">
              <mxPoint x="1700" y="360" />
            </Array>
          </mxGeometry>
        </mxCell>
        <mxCell id="KDtAswgpiZjDjle5bZfT-73" value="&lt;b&gt;.52&lt;/b&gt;" style="edgeLabel;html=1;align=center;verticalAlign=middle;resizable=0;points=[];fontSize=20;fontColor=#FF0080;" vertex="1" connectable="0" parent="KDtAswgpiZjDjle5bZfT-72">
          <mxGeometry x="-0.5811" y="-1" relative="1" as="geometry">
            <mxPoint as="offset" />
          </mxGeometry>
        </mxCell>
      </root>
    </mxGraphModel>
  </diagram>
</mxfile>
